<?xml version="1.0" standalone="no"?>
<!DOCTYPE svg PUBLIC "-//W3C//DTD SVG 20010904//EN"
 "http://www.w3.org/TR/2001/REC-SVG-20010904/DTD/svg10.dtd">
<svg version="1.0" xmlns="http://www.w3.org/2000/svg"
 width="512.000000pt" height="512.000000pt" viewBox="0 0 512.000000 512.000000"
 preserveAspectRatio="xMidYMid meet">

<g transform="translate(0.000000,512.000000) scale(0.100000,-0.100000)"
fill="#000000" stroke="none">
<path d="M2385 5043 c-329 -27 -659 -121 -945 -270 -229 -118 -411 -250 -598
-435 -399 -393 -643 -888 -717 -1451 -17 -134 -20 -426 -5 -562 60 -553 297
-1054 685 -1454 400 -411 880 -651 1470 -733 135 -19 494 -15 635 6 63 10 135
22 160 28 96 23 666 241 734 280 680 395 1135 1097 1217 1878 17 166 6 513
-21 665 -187 1045 -976 1836 -2015 2019 -172 30 -435 43 -600 29z m465 -173
c122 -16 216 -36 375 -81 376 -104 711 -304 1000 -596 98 -98 227 -256 272
-331 10 -16 41 -67 70 -113 94 -153 199 -408 252 -609 137 -529 72 -1112 -181
-1614 -139 -276 -397 -587 -641 -773 -119 -91 -328 -219 -371 -229 -17 -3
-111 -37 -208 -75 -97 -38 -181 -69 -186 -69 -6 0 -50 -15 -98 -34 -83 -31
-123 -40 -286 -66 -246 -37 -575 -12 -868 67 -476 128 -907 413 -1211 799
-249 316 -403 670 -476 1099 -25 145 -25 510 0 660 91 550 342 1020 736 1378
86 79 263 217 277 217 4 0 21 10 38 23 17 13 38 27 46 30 8 4 29 16 45 27 17
11 50 29 75 41 25 11 63 30 85 41 133 67 374 146 580 188 176 36 482 45 675
20z"/>
<path d="M2852 4549 c-103 -51 -227 -240 -487 -744 -181 -351 -314 -582 -458
-800 -344 -519 -717 -755 -1173 -743 l-124 3 -25 -63 c-14 -34 -25 -65 -25
-68 0 -4 62 -4 137 -1 273 10 515 103 776 298 126 94 310 283 397 407 35 50
69 92 75 92 17 0 167 -133 226 -201 121 -138 254 -357 290 -479 l12 -40 56 0
56 0 73 343 c41 188 78 363 84 390 l10 47 64 0 c49 0 64 3 64 14 0 8 3 21 6
30 5 14 -3 16 -55 16 -42 0 -61 4 -61 13 0 6 61 298 135 647 75 349 139 672
142 717 6 81 6 82 -25 112 -26 26 -38 31 -79 31 -29 0 -65 -8 -91 -21z m6
-141 c7 -7 12 -26 12 -42 0 -33 -264 -1303 -272 -1311 -3 -3 -133 -4 -290 -3
l-285 3 85 150 c46 83 152 276 234 430 343 638 396 728 454 766 34 22 46 23
62 7z m-272 -1435 c-3 -10 -28 -126 -56 -258 -28 -132 -53 -248 -56 -258 -5
-14 -19 1 -61 65 -99 149 -194 258 -315 364 -48 42 -96 83 -105 90 -15 11 30
13 290 14 289 0 308 -1 303 -17z"/>
<path d="M3860 4001 c-132 -41 -249 -171 -356 -395 -70 -148 -119 -293 -151
-445 -22 -108 -26 -150 -26 -296 0 -140 4 -184 21 -246 21 -78 86 -219 100
-219 5 0 40 27 79 60 l71 59 -34 63 c-77 143 -111 319 -101 526 21 400 220
802 398 802 46 0 91 -52 114 -132 15 -51 19 -93 18 -218 -3 -340 -99 -832
-257 -1317 l-47 -142 -42 -11 c-636 -167 -1164 -542 -1372 -975 -59 -124 -70
-169 -70 -295 0 -100 3 -121 23 -161 68 -138 219 -197 395 -155 387 91 893
686 1213 1425 l64 146 47 7 c27 3 78 7 114 7 60 1 67 3 73 24 3 12 6 26 6 31
0 5 -47 7 -108 4 l-107 -5 48 141 c130 379 207 796 207 1116 0 336 -58 526
-180 588 -45 22 -94 27 -140 13z m-261 -2124 c-114 -287 -279 -618 -391 -785
-128 -190 -325 -401 -440 -470 -243 -146 -431 -62 -429 191 1 347 322 761 782
1010 168 91 518 221 528 196 1 -6 -21 -69 -50 -142z"/>
</g>
</svg>
